<svg width="480" height="320" viewBox="0 0 480 320" xmlns="http://www.w3.org/2000/svg">
  <rect width="480" height="320" rx="28" fill="#0F172A"/>
  <path d="M80 220C110 150 170 125 320 130C400 135 430 150 450 210L460 240C465 255 455 270 440 270H420C420 245 399 225 372 225C345 225 324 245 324 270H196C196 245 175 225 148 225C121 225 100 245 100 270H80C60 270 55 245 65 232L80 220Z" fill="#CBD5F5"/>
  <circle cx="148" cy="270" r="28" fill="#1E293B"/>
  <circle cx="148" cy="270" r="14" fill="#E2E8F0"/>
  <circle cx="372" cy="270" r="28" fill="#1E293B"/>
  <circle cx="372" cy="270" r="14" fill="#E2E8F0"/>
  <text x="40" y="70" fill="#38BDF8" font-size="22" font-family="Inter" font-weight="600">Executive Sedans</text>
  <text x="40" y="104" fill="#E2E8F0" font-size="16" font-family="Inter">Comfort · Connected · Efficient</text>
</svg>

