<svg width="480" height="320" viewBox="0 0 480 320" xmlns="http://www.w3.org/2000/svg">
  <rect width="480" height="320" rx="28" fill="#020617"/>
  <path d="M70 210C110 150 190 120 340 130C400 134 430 150 450 190L460 215C468 233 458 254 439 255H414C414 233 397 217 374 217C351 217 334 233 334 255H202C202 232 185 217 162 217C139 217 122 232 122 255H90C68 255 60 232 70 210Z" fill="#F43F5E"/>
  <circle cx="162" cy="255" r="26" fill="#0F172A"/>
  <circle cx="162" cy="255" r="13" fill="#FEE2E2"/>
  <circle cx="374" cy="255" r="26" fill="#0F172A"/>
  <circle cx="374" cy="255" r="13" fill="#FEE2E2"/>
  <path d="M130 178H400" stroke="#F87171" stroke-width="6" stroke-linecap="round" opacity="0.5"/>
  <text x="44" y="70" fill="#F43F5E" font-size="22" font-family="Inter" font-weight="600">Track Performance</text>
  <text x="44" y="104" fill="#E2E8F0" font-size="16" font-family="Inter">Aerodynamic · Lightweight · Precise</text>
</svg>

