<svg width="480" height="320" viewBox="0 0 480 320" xmlns="http://www.w3.org/2000/svg">
  <rect width="480" height="320" rx="28" fill="#1E293B"/>
  <path d="M60 210C95 150 150 120 310 125C390 128 425 150 445 190L455 215C463 234 453 255 433 256H398C398 234 380 217 358 217C336 217 318 234 318 256H186C186 233 168 217 146 217C124 217 106 233 106 256H78C57 256 50 233 60 210Z" fill="#FBBF24"/>
  <circle cx="146" cy="256" r="26" fill="#0F172A"/>
  <circle cx="146" cy="256" r="13" fill="#FEF3C7"/>
  <circle cx="358" cy="256" r="26" fill="#0F172A"/>
  <circle cx="358" cy="256" r="13" fill="#FEF3C7"/>
  <path d="M115 180H370" stroke="#0F172A" stroke-width="6" stroke-linecap="round" opacity="0.4"/>
  <text x="36" y="70" fill="#FACC15" font-size="22" font-family="Inter" font-weight="600">Adventure SUVs</text>
  <text x="36" y="104" fill="#E2E8F0" font-size="16" font-family="Inter">Terrain-ready · Spacious · Safe</text>
</svg>

